<svg id="svg" xmlns="http://www.w3.org/2000/svg" xmlns:xlink="http://www.w3.org/1999/xlink" width="400" height="400" viewBox="0, 0, 400,400"><g id="svgg"><path id="path0" d="M234.000 13.102 C 224.077 13.747,221.368 14.015,214.000 15.077 C 212.985 15.223,211.108 15.484,209.830 15.656 C 208.552 15.828,206.406 16.185,205.061 16.448 C 203.716 16.711,201.785 17.074,200.769 17.255 C 180.342 20.903,152.215 30.654,135.231 39.976 C 124.709 45.751,117.609 50.433,107.231 58.441 C 95.548 67.456,80.766 83.235,72.476 95.538 C 59.646 114.581,50.560 137.882,47.271 160.180 C 46.848 163.052,46.621 164.797,45.825 171.308 C 45.644 172.788,45.367 174.842,45.209 175.871 C 44.703 179.179,44.815 180.615,45.579 180.615 C 46.780 180.615,57.432 177.639,58.743 176.937 C 59.690 176.430,60.057 175.534,62.280 168.305 C 77.490 118.856,115.052 80.865,166.308 63.091 C 168.338 62.387,170.485 61.628,171.077 61.405 C 173.233 60.595,183.332 58.065,187.692 57.244 C 232.194 48.859,272.568 56.025,309.265 78.822 C 315.658 82.794,314.805 82.988,323.208 75.657 C 326.580 72.715,331.094 68.785,333.238 66.923 C 344.726 56.949,355.385 47.223,355.385 46.714 C 355.385 44.795,340.832 35.177,330.308 30.141 C 316.204 23.391,296.700 17.586,280.769 15.396 C 279.415 15.210,277.408 14.930,276.308 14.774 C 261.944 12.740,248.032 12.190,234.000 13.102 M211.077 72.035 C 189.807 74.106,170.741 79.567,151.846 89.002 C 118.413 105.696,96.108 130.670,82.707 166.415 C 80.834 171.412,80.809 171.364,84.802 170.486 C 89.929 169.358,91.903 167.807,95.996 161.688 C 111.882 137.942,136.918 121.636,170.822 112.956 C 176.743 111.440,178.714 111.026,182.769 110.452 C 183.869 110.296,186.085 109.969,187.692 109.726 C 189.300 109.483,192.208 109.127,194.154 108.934 C 196.100 108.741,198.879 108.452,200.329 108.292 C 206.235 107.638,223.261 108.007,229.692 108.928 C 230.877 109.098,233.300 109.441,235.077 109.691 C 246.474 111.292,254.916 113.575,265.920 118.031 C 274.527 121.517,272.536 122.201,282.194 112.437 C 286.318 108.268,292.081 102.707,295.000 100.080 C 297.919 97.452,300.308 95.181,300.308 95.032 C 300.308 94.023,284.242 85.715,275.385 82.144 C 262.882 77.104,246.984 73.191,235.231 72.261 C 229.955 71.843,214.529 71.699,211.077 72.035 M202.923 125.860 C 198.275 126.149,195.577 126.457,186.923 127.689 C 154.334 132.327,124.094 150.187,107.726 174.462 C 99.582 186.541,93.763 203.178,92.283 218.615 C 90.216 240.191,92.796 250.982,102.731 262.311 C 108.615 269.022,146.315 300.290,148.538 300.305 C 149.017 300.308,149.056 296.084,148.630 290.308 C 146.299 258.668,147.634 246.161,155.019 230.449 C 159.459 221.003,169.295 207.692,171.835 207.692 C 172.903 207.692,172.548 209.166,169.848 215.949 C 163.632 231.565,161.451 239.896,159.691 254.741 C 158.188 267.424,160.671 285.619,165.592 297.984 C 179.392 332.659,217.656 364.929,268.796 385.021 C 277.997 388.636,277.718 388.777,275.551 381.613 C 271.690 368.848,269.630 357.254,268.620 342.615 C 268.013 333.823,268.352 325.837,269.886 312.769 C 270.460 307.872,272.602 297.871,274.494 291.256 C 276.632 283.778,276.678 284.310,273.793 283.221 C 256.079 276.534,246.264 258.900,252.955 245.783 C 253.624 244.472,254.336 244.000,255.644 244.000 C 256.554 244.000,258.820 245.318,277.846 256.918 C 281.823 259.343,287.362 262.712,290.154 264.405 C 302.669 271.995,302.803 272.164,300.655 277.607 C 289.797 305.126,287.561 325.751,292.642 351.521 C 293.252 354.616,296.223 363.393,296.895 364.087 C 297.427 364.637,298.155 363.843,298.624 362.203 C 300.411 355.946,318.298 301.185,321.304 292.769 C 322.717 288.813,325.040 283.461,328.782 275.538 C 333.307 265.959,334.256 267.227,313.452 255.049 C 300.820 247.655,299.811 246.315,308.271 248.167 C 310.237 248.598,313.750 249.359,316.077 249.860 C 318.404 250.360,322.212 251.180,324.538 251.681 C 332.263 253.346,332.576 253.394,333.000 252.969 C 333.529 252.441,333.750 214.309,333.252 209.385 C 331.422 191.263,327.796 176.994,321.537 163.291 C 318.590 156.838,317.896 156.405,309.846 155.995 C 299.564 155.472,296.441 154.359,284.154 146.836 C 264.859 135.024,251.310 130.058,229.462 126.789 C 223.107 125.839,210.413 125.394,202.923 125.860 M197.172 150.129 C 198.304 150.285,200.477 150.575,202.000 150.773 C 209.329 151.728,212.727 153.450,208.359 153.995 C 163.746 159.566,132.227 183.691,118.009 223.149 C 116.204 228.158,115.703 227.583,115.697 220.497 C 115.692 215.286,115.830 213.933,116.959 208.066 C 122.175 180.979,146.425 157.707,175.681 151.711 C 178.381 151.158,179.990 150.896,185.077 150.180 C 187.646 149.819,194.698 149.789,197.172 150.129 M191.883 223.576 C 191.994 224.020,191.927 226.131,191.733 228.268 C 188.260 266.529,204.208 303.152,231.412 319.386 C 237.025 322.736,236.919 322.456,236.921 333.943 C 236.924 344.948,237.149 344.521,232.480 342.340 C 196.706 325.622,177.122 280.719,186.504 236.923 C 188.422 227.971,191.234 220.992,191.883 223.576 M85.846 270.732 C 85.846 272.095,86.926 277.943,87.838 281.525 C 92.009 297.890,100.261 312.556,111.727 323.980 C 118.343 330.571,120.120 331.140,126.353 328.660 C 128.920 327.639,133.426 326.139,142.154 323.402 C 144.726 322.596,144.483 322.126,140.308 319.827 C 119.412 308.325,101.734 292.069,88.043 271.769 C 86.627 269.670,85.846 269.301,85.846 270.732 " stroke="none" fill="#000000" fill-rule="evenodd"></path></g></svg>